<?xml version="1.0" standalone="no"?>
<!DOCTYPE svg PUBLIC "-//W3C//DTD SVG 20010904//EN"
 "http://www.w3.org/TR/2001/REC-SVG-20010904/DTD/svg10.dtd">
<svg version="1.0" xmlns="http://www.w3.org/2000/svg"
 width="105.000000pt" height="121.000000pt" viewBox="0 0 105.000000 121.000000"
 preserveAspectRatio="xMidYMid meet">

<g transform="translate(0.000000,121.000000) scale(0.100000,-0.100000)"
fill="#000000" stroke="none">
<path d="M241 998 c-28 -14 -54 -37 -73 -67 -29 -46 -29 -47 -26 -178 3 -128
4 -132 33 -175 17 -24 51 -54 75 -68 43 -24 55 -25 250 -30 l205 -5 3 -167 c2
-165 3 -168 24 -168 44 0 110 42 140 89 29 46 29 47 26 178 -3 128 -4 132 -33
175 -17 24 -51 54 -75 68 -43 24 -55 25 -250 30 l-205 5 -3 168 c-2 165 -3
167 -25 167 -12 0 -42 -10 -66 -22z"/>
<path d="M710 940 c0 -121 33 -183 115 -221 73 -34 75 -31 75 74 0 85 -2 97
-29 139 -30 46 -95 88 -139 88 -21 0 -22 -4 -22 -80z"/>
<path d="M140 367 c0 -85 2 -97 29 -139 30 -46 95 -88 139 -88 21 0 22 4 22
83 -1 122 -36 185 -122 222 -67 27 -68 26 -68 -78z"/>
</g>
</svg>
